<svg width="59" height="59" viewBox="0 0 59 59" fill="none" xmlns="http://www.w3.org/2000/svg">
<g clip-path="url(#clip0_2_134)">
<rect width="59" height="59" rx="29.5" transform="matrix(-1 0 0 1 59 0)" fill="#FABE7A"/>
<path d="M33.5449 44.9633C32.0779 42.5241 28.71 37.8488 20.6907 31.2792C8.58969 21.3659 20.0106 12.2985 32.2799 17.1277C33.5924 17.6444 37.2295 15.5761 40.5986 17.7551C42.772 19.1607 41.9262 20.2623 42.7724 21.3639C43.6186 22.4655 46.8812 22.4007 47.5959 25.2611C48.0192 26.9558 46.8478 28.7309 47.0045 30.0064C47.1612 31.2819 48.3978 32.4317 48.4567 34.1156C48.4823 34.8268 48.3675 35.5361 48.1189 36.2029C47.8702 36.8697 47.4927 37.481 47.0078 38.0019C46.5229 38.5228 45.9401 38.9431 45.2927 39.2387C44.6454 39.5343 43.9461 39.6995 43.2349 39.7249C43.2291 41.1309 42.6801 42.4802 41.7026 43.4909C40.7252 44.5016 39.395 45.0954 37.9899 45.1482C37.089 45.1812 36.1942 44.9874 35.3876 44.5846C34.5874 45.3222 33.9003 45.5541 33.5449 44.9633Z" fill="url(#paint0_linear_2_134)"/>
<path d="M30.5454 16.5277C32.6315 17.8658 35.2125 22.2546 34.0796 28.1461C33.8325 29.4315 34.6047 29.8164 35.2653 28.2308C37.2585 23.4471 37.4895 19.133 34.0796 17.0694C33.4867 16.7125 33.148 17.0016 32.7245 16.9666C31.9191 16.8998 30.8347 16.3292 30.5454 16.5277Z" fill="url(#paint1_linear_2_134)"/>
<path d="M33.2555 42.4438C33.2555 40.9193 33.3074 33.3999 33.3048 33.2729C37.4902 33.8898 37.4055 25.9286 33.1709 27.8766C32.2392 28.4694 29.6137 27.8766 29.8678 22.9644C25.2944 27.8766 19.9846 22.1473 19.5293 26.8159C18.9075 33.1907 19.5331 39.8622 23.4948 39.8627C23.9282 39.8574 24.3604 39.8143 24.7862 39.7336V42.4438C24.7862 44.1377 21.7373 44.9846 21.7373 44.9846C21.7373 44.9846 27.0038 49.9476 29.1903 49.9202C31.3767 49.8927 36.3045 44.9846 36.3045 44.9846C36.3045 44.9846 33.2555 44.1377 33.2555 42.4438Z" fill="url(#paint2_linear_2_134)"/>
<g style="mix-blend-mode:multiply">
<path d="M24.7863 39.7328C26.8877 39.2667 28.879 38.3982 30.6502 37.1752C30.6502 37.1752 29.1888 40.7481 24.7917 41.426L24.7863 39.7328Z" fill="#FFDBC9"/>
</g>
<path d="M13.4377 50.0662C12.2088 52.797 11.5745 61.0763 11.5745 61.0763H46.4681C46.4681 61.0763 45.8337 52.797 44.6048 50.0662C43.5282 47.6739 36.4338 44.9272 34.3547 44.1376C33.1543 45.4805 31.434 46.3397 29.0213 46.3397C26.6085 46.3397 24.8882 45.4805 23.6878 44.1376C21.6088 44.9272 14.5144 47.6739 13.4377 50.0662Z" fill="url(#paint3_linear_2_134)"/>
</g>
<defs>
<linearGradient id="paint0_linear_2_134" x1="32.5856" y1="45.3513" x2="31.5421" y2="15.5691" gradientUnits="userSpaceOnUse">
<stop stop-color="#E6864E"/>
<stop offset="1" stop-color="#E67240"/>
</linearGradient>
<linearGradient id="paint1_linear_2_134" x1="33.63" y1="16.486" x2="33.63" y2="29.2722" gradientUnits="userSpaceOnUse">
<stop stop-color="#1D0024"/>
<stop offset="1" stop-color="#100014"/>
</linearGradient>
<linearGradient id="paint2_linear_2_134" x1="27.8589" y1="22.9644" x2="27.8589" y2="49.9203" gradientUnits="userSpaceOnUse">
<stop stop-color="#FFE0CC"/>
<stop offset="1" stop-color="#FFEADB"/>
</linearGradient>
<linearGradient id="paint3_linear_2_134" x1="29.0213" y1="44.1376" x2="29.0213" y2="61.0763" gradientUnits="userSpaceOnUse">
<stop stop-color="#130027"/>
<stop offset="1" stop-color="#130017"/>
</linearGradient>
<clipPath id="clip0_2_134">
<rect width="59" height="59" rx="29.5" transform="matrix(-1 0 0 1 59 0)" fill="white"/>
</clipPath>
</defs>
</svg>
